
        <svg xmlns="http://www.w3.org/2000/svg" xmlns:xlink="http://www.w3.org/1999/xlink" version="1.1" width="3300" 
        height="2627.9686420284265" viewBox="0 0 3300 2627.9686420284265">
			
			<g transform="scale(15.000000000000002) translate(10, 10)">
				<defs id="SvgjsDefs2953"></defs><g id="SvgjsG2954" featureKey="ZxbabI-0" transform="matrix(1.1363616659655729,0,0,1.1363616659655729,43.18191832729976,-6.818169995793437)" fill="#4ecca3"><g xmlns="http://www.w3.org/2000/svg" transform="translate(0,-952.36218)"><path style="text-indent:0;text-transform:none;direction:ltr;block-progression:tb;baseline-shift:baseline;color:;enable-background:accumulate;" d="m 13.540789,1013.168 c -4.1612604,0 -7.5408665,3.3922 -7.5408665,7.5693 0,4.1771 3.3796061,7.605 7.5408665,7.605 0.813543,0 1.613976,-0.1361 2.383228,-0.3928 12.281102,18.8997 36.649842,23.2608 54.493227,13.032 0.521221,-0.2991 0.724607,-1.0475 0.426614,-1.571 -0.297992,-0.5234 -1.043503,-0.7275 -1.565078,-0.4284 -16.772953,9.6153 -39.67122,5.6292 -51.327282,-12.1037 1.894251,-1.3812 3.130157,-3.6195 3.130157,-6.1411 0,-4.1771 -3.379252,-7.5693 -7.540866,-7.5693 z" fill="#4ecca3" fill-opacity="1" fill-rule="evenodd" stroke="none" marker="none" visibility="visible" display="inline" overflow="visible"></path><path style="text-indent:0;text-transform:none;direction:ltr;block-progression:tb;baseline-shift:baseline;color:;enable-background:accumulate;" d="m 70.417244,970.57299 c -0.951023,0.12132 -1.237323,1.69026 -0.391181,2.14225 13.429842,8.21899 20.928543,24.30182 17.64248,40.55986 -0.392953,-0.067 -0.80185,-0.107 -1.209331,-0.107 -4.161259,0 -7.540866,3.3922 -7.540866,7.5692 0,4.1771 3.379607,7.605 7.540866,7.605 4.16126,0 7.540866,-3.4279 7.540866,-7.605 0,-2.9516 -1.686968,-5.51 -4.161614,-6.748 3.607441,-17.29107 -4.331338,-34.48188 -18.638503,-43.23773 -0.189921,-0.12122 -0.415984,-0.18423 -0.64063,-0.17852 -0.04784,-0.003 -0.09425,-0.003 -0.142087,0 z" fill="#4ecca3" fill-opacity="1" fill-rule="evenodd" stroke="none" marker="none" visibility="visible" display="inline" overflow="visible"></path><path style="text-indent:0;text-transform:none;direction:ltr;block-progression:tb;baseline-shift:baseline;color:;enable-background:accumulate;" d="m 50.000001,958.36218 c -4.012441,0 -7.27441,3.16987 -7.505079,7.14083 -17.197086,3.19362 -29.727637,16.85266 -32.5821254,33.06201 a 1.1383515,1.1426463 0 1 0 2.2407874,0.39275 c 2.681221,-15.22486 14.388307,-28.07084 30.518858,-31.1697 0.826653,3.28539 3.802677,5.71266 7.327559,5.71266 4.161259,0 7.540866,-3.39219 7.540866,-7.56928 0,-4.17708 -3.379607,-7.56927 -7.540866,-7.56927 z" fill="#4ecca3" fill-opacity="1" fill-rule="evenodd" stroke="none" marker="none" visibility="visible" display="inline" overflow="visible"></path></g></g><g id="SvgjsG2955" featureKey="91VAEh-0" transform="matrix(1.3873470628531557,0,0,1.3873470628531557,-2.7191437345623344,113.5072173070784)" fill="#393e46"><path d="M10.04 19.42 c0 0.16 -0.05666 0.29664 -0.17 0.40998 s-0.25668 0.17 -0.43002 0.17 l-6.88 0 c-0.17334 0 -0.31668 -0.05666 -0.43002 -0.17 s-0.17 -0.25 -0.17 -0.41 l0 -0.04 l0 -0.04 l0 -13.94 c0 -0.16 0.05666 -0.29666 0.17 -0.41 s0.25668 -0.17 0.43002 -0.17 l6.88 0 c0.17334 0 0.31668 0.05666 0.43002 0.17 s0.17 0.25 0.17 0.41 s-0.05666 0.29666 -0.17 0.41 s-0.25668 0.17 -0.43002 0.17 l-6.3 0 l0 5.7 l5.36 0 c0.16 0 0.29666 0.05666 0.41 0.17 s0.17 0.25 0.17 0.41 s-0.05666 0.29666 -0.17 0.41 s-0.25 0.17 -0.41 0.17 l-5.36 0 l0 5.98 l6.3 0 c0.17334 0 0.31668 0.05666 0.43002 0.17 s0.17 0.25668 0.17 0.43002 z M19.32 19.42 c0 0.16 -0.05666 0.29666 -0.17 0.41 s-0.25668 0.17 -0.43002 0.17 l-5.34 0 c-0.16 0 -0.29666 -0.05666 -0.41 -0.17 s-0.17 -0.25 -0.17 -0.41 l0 -14.02 c0 -0.16 0.05666 -0.29666 0.17 -0.41 s0.25 -0.17 0.41 -0.17 s0.29666 0.05666 0.41 0.17 s0.17 0.25 0.17 0.41 l0 13.44 l4.76 0 c0.17334 0 0.31668 0.05666 0.43002 0.17 s0.17 0.25 0.17 0.41 z M29.56 19.42 c0 0.16 -0.05666 0.29664 -0.17 0.40998 s-0.25668 0.17 -0.43002 0.17 l-6.88 0 c-0.17334 0 -0.31668 -0.05666 -0.43002 -0.17 s-0.17 -0.25 -0.17 -0.41 l0 -0.04 l0 -0.04 l0 -13.94 c0 -0.16 0.05666 -0.29666 0.17 -0.41 s0.25668 -0.17 0.43002 -0.17 l6.88 0 c0.17334 0 0.31668 0.05666 0.43002 0.17 s0.17 0.25 0.17 0.41 s-0.05666 0.29666 -0.17 0.41 s-0.25668 0.17 -0.43002 0.17 l-6.3 0 l0 5.7 l5.36 0 c0.16 0 0.29666 0.05666 0.41 0.17 s0.17 0.25 0.17 0.41 s-0.05666 0.29666 -0.17 0.41 s-0.25 0.17 -0.41 0.17 l-5.36 0 l0 5.98 l6.3 0 c0.17334 0 0.31668 0.05666 0.43002 0.17 s0.17 0.25668 0.17 0.43002 z M44.98 17.759999999999998 c-0.73334 0.72 -1.5633 1.2734 -2.49 1.6601 s-1.9033 0.58 -2.93 0.58 c-1.0667 0 -2.0634 -0.2 -2.99 -0.6 s-1.74 -0.95 -2.44 -1.65 s-1.25 -1.5133 -1.65 -2.44 s-0.6 -1.9233 -0.6 -2.99 c0 -1.0533 0.2 -2.0366 0.6 -2.95 s0.95 -1.7067 1.65 -2.38 s1.5133 -1.2033 2.44 -1.59 s1.9233 -0.58 2.99 -0.58 c1.0267 0 2.0034 0.19334 2.93 0.58 s1.7567 0.94 2.49 1.66 c0.10666 0.10666 0.16 0.24332 0.16 0.40998 s-0.05334 0.30332 -0.16 0.40998 c-0.12 0.12 -0.26 0.18 -0.42 0.18 s-0.3 -0.06 -0.42 -0.18 c-0.61334 -0.61334 -1.3133 -1.0833 -2.1 -1.41 s-1.6133 -0.49 -2.48 -0.49 c-0.90666 0 -1.7533 0.16334 -2.54 0.49 s-1.4733 0.77332 -2.06 1.34 s-1.05 1.2367 -1.39 2.01 s-0.51 1.6067 -0.51 2.5 c0 0.90666 0.17 1.7533 0.51 2.54 s0.80334 1.4733 1.39 2.06 s1.2733 1.05 2.06 1.39 s1.6333 0.51 2.54 0.51 c0.86666 0 1.6933 -0.16 2.48 -0.48 s1.4867 -0.79334 2.1 -1.42 c0.12 -0.10666 0.26 -0.16 0.42 -0.16 s0.3 0.05334 0.42 0.16 c0.10666 0.12 0.16 0.26 0.16 0.42 s-0.05334 0.3 -0.16 0.42 z M56.519999999999996 5.4 c0 0.16 -0.05664 0.29666 -0.16998 0.41 s-0.25 0.17 -0.41 0.17 l-3.54 0 l0 13.44 c0 0.16 -0.05666 0.29666 -0.17 0.41 s-0.25 0.17 -0.41 0.17 c-0.17334 0 -0.31668 -0.05666 -0.43002 -0.17 s-0.17 -0.25 -0.17 -0.41 l0 -13.44 l-3.54 0 c-0.16 0 -0.29666 -0.05666 -0.41 -0.17 s-0.17 -0.25 -0.17 -0.41 s0.05666 -0.29666 0.17 -0.41 s0.25 -0.17 0.41 -0.17 l8.26 0 c0.16 0 0.29666 0.05666 0.41 0.17 s0.17 0.25 0.17 0.41 z M67.16 8.94 c0 0.57334 -0.10998 1.11 -0.32998 1.61 s-0.51666 0.93666 -0.89 1.31 s-0.81 0.66668 -1.31 0.88002 s-1.0367 0.32 -1.61 0.32 l-0.24 0 l3.62 6.06 c0.05334 0.06666 0.08 0.16666 0.08 0.3 c0 0.16 -0.05666 0.29666 -0.17 0.41 s-0.25 0.17 -0.41 0.17 c-0.21334 0 -0.38668 -0.1 -0.52002 -0.3 l-3.96 -6.64 l-1.34 0 l0 6.36 c0 0.16 -0.05666 0.29666 -0.17 0.41 s-0.25 0.17 -0.41 0.17 c-0.17334 0 -0.31668 -0.05666 -0.43002 -0.17 s-0.17 -0.25 -0.17 -0.41 l0 -14.02 c0 -0.16 0.05666 -0.29666 0.17 -0.41 s0.25668 -0.17 0.43002 -0.17 l3.52 0 c0.57334 0 1.11 0.10666 1.61 0.32 s0.93666 0.50668 1.31 0.88002 s0.67 0.81 0.89 1.31 s0.33 1.0367 0.33 1.61 z M65.97999999999999 8.94 c0 -0.4 -0.07666 -0.77998 -0.23 -1.14 s-0.36334 -0.67666 -0.63 -0.95 s-0.58 -0.48668 -0.94 -0.64002 s-0.74666 -0.23 -1.16 -0.23 l-2.94 0 l0 5.9 l2.94 0 c0.41334 0 0.8 -0.07666 1.16 -0.23 s0.67334 -0.36334 0.94 -0.63 s0.47666 -0.58 0.63 -0.94 s0.23 -0.74 0.23 -1.14 z M84.5 12.4 c0 1.0533 -0.2 2.04 -0.6 2.96 s-0.94334 1.7233 -1.63 2.41 s-1.49 1.23 -2.41 1.63 s-1.9 0.6 -2.94 0.6 c-1.0533 0 -2.04 -0.2 -2.96 -0.6 s-1.7233 -0.94334 -2.41 -1.63 s-1.23 -1.49 -1.63 -2.41 s-0.6 -1.9067 -0.6 -2.96 c0 -1.04 0.2 -2.02 0.6 -2.94 s0.94334 -1.7233 1.63 -2.41 s1.49 -1.23 2.41 -1.63 s1.9067 -0.6 2.96 -0.6 c1.04 0 2.02 0.2 2.94 0.6 s1.7233 0.94334 2.41 1.63 s1.23 1.49 1.63 2.41 s0.6 1.9 0.6 2.94 z M83.34 12.4 c0 -0.88 -0.17 -1.71 -0.51 -2.49 s-0.8 -1.46 -1.38 -2.04 s-1.26 -1.04 -2.04 -1.38 s-1.61 -0.51 -2.49 -0.51 s-1.7133 0.17 -2.5 0.51 s-1.47 0.8 -2.05 1.38 s-1.04 1.26 -1.38 2.04 s-0.51 1.61 -0.51 2.49 c0 0.89334 0.17 1.73 0.51 2.51 s0.8 1.46 1.38 2.04 s1.2633 1.04 2.05 1.38 s1.62 0.51 2.5 0.51 s1.71 -0.17 2.49 -0.51 s1.46 -0.8 2.04 -1.38 s1.04 -1.26 1.38 -2.04 s0.51 -1.6167 0.51 -2.51 z M107.82 5.26 c0 0.04 -0.069882 0.25666 -0.20988 0.65 s-0.32334 0.90668 -0.55 1.54 s-0.48666 1.3533 -0.78 2.16 s-0.59668 1.6367 -0.91002 2.49 s-0.62668 1.6967 -0.94002 2.53 s-0.59668 1.5967 -0.85002 2.29 s-0.47 1.28 -0.65 1.76 s-0.29666 0.79334 -0.35 0.94 c-0.09334 0.25334 -0.27334 0.38 -0.54 0.38 c-0.12 0 -0.23 -0.03666 -0.33 -0.11 s-0.17666 -0.16334 -0.23 -0.27 l-4.64 -12.66 l-4.66 12.66 c-0.09334 0.25334 -0.27334 0.38 -0.54 0.38 c-0.28 0 -0.46666 -0.12666 -0.56 -0.38 c-0.05334 -0.14666 -0.17 -0.46 -0.35 -0.94 s-0.39666 -1.0667 -0.65 -1.76 s-0.53668 -1.4567 -0.85002 -2.29 s-0.62668 -1.6767 -0.94002 -2.53 s-0.61668 -1.6833 -0.91002 -2.49 s-0.55334 -1.5267 -0.78 -2.16 s-0.41 -1.1467 -0.55 -1.54 s-0.21 -0.61 -0.21 -0.65 c0 -0.16 0.05666 -0.29666 0.17 -0.41 s0.25 -0.17 0.41 -0.17 c0.28 0 0.46666 0.12666 0.56 0.38 l4.66 12.66 l4.64 -12.66 c0.04 -0.10666 0.11334 -0.19666 0.22 -0.27 s0.22 -0.11 0.34 -0.11 c0.26666 0 0.44666 0.12666 0.54 0.38 l4.66 12.66 l4.64 -12.66 c0.05334 -0.10666 0.13 -0.19666 0.23 -0.27 s0.21 -0.11 0.33 -0.11 c0.16 0 0.29666 0.05666 0.41 0.17 s0.17 0.25 0.17 0.41 z M117.66 19.42 c0 0.16 -0.05666 0.29664 -0.17 0.40998 s-0.25668 0.17 -0.43002 0.17 l-6.88 0 c-0.17334 0 -0.31668 -0.05666 -0.43002 -0.17 s-0.17 -0.25 -0.17 -0.41 l0 -0.04 l0 -0.04 l0 -13.94 c0 -0.16 0.05666 -0.29666 0.17 -0.41 s0.25668 -0.17 0.43002 -0.17 l6.88 0 c0.17334 0 0.31668 0.05666 0.43002 0.17 s0.17 0.25 0.17 0.41 s-0.05666 0.29666 -0.17 0.41 s-0.25668 0.17 -0.43002 0.17 l-6.3 0 l0 5.7 l5.36 0 c0.16 0 0.29666 0.05666 0.41 0.17 s0.17 0.25 0.17 0.41 s-0.05666 0.29666 -0.17 0.41 s-0.25 0.17 -0.41 0.17 l-5.36 0 l0 5.98 l6.3 0 c0.17334 0 0.31668 0.05666 0.43002 0.17 s0.17 0.25668 0.17 0.43002 z M126.94 19.42 c0 0.16 -0.05666 0.29666 -0.17 0.41 s-0.25668 0.17 -0.43002 0.17 l-5.34 0 c-0.16 0 -0.29666 -0.05666 -0.41 -0.17 s-0.17 -0.25 -0.17 -0.41 l0 -14.02 c0 -0.16 0.05666 -0.29666 0.17 -0.41 s0.25 -0.17 0.41 -0.17 s0.29666 0.05666 0.41 0.17 s0.17 0.25 0.17 0.41 l0 13.44 l4.76 0 c0.17334 0 0.31668 0.05666 0.43002 0.17 s0.17 0.25 0.17 0.41 z M135.61999999999998 19.42 c0 0.16 -0.05666 0.29666 -0.17 0.41 s-0.25668 0.17 -0.43002 0.17 l-5.34 0 c-0.16 0 -0.29666 -0.05666 -0.41 -0.17 s-0.17 -0.25 -0.17 -0.41 l0 -14.02 c0 -0.16 0.05666 -0.29666 0.17 -0.41 s0.25 -0.17 0.41 -0.17 s0.29666 0.05666 0.41 0.17 s0.17 0.25 0.17 0.41 l0 13.44 l4.76 0 c0.17334 0 0.31668 0.05666 0.43002 0.17 s0.17 0.25 0.17 0.41 z M146.12 19.42 c0 0.16 -0.05666 0.29666 -0.17 0.41 s-0.25 0.17 -0.41 0.17 l-8.5 0 c-0.16 0 -0.29666 -0.05666 -0.41 -0.17 s-0.17 -0.25 -0.17 -0.41 c0 -0.13334 0.02666 -0.23334 0.08 -0.3 l7.96 -13.14 l-7.46 0 c-0.16 0 -0.29666 -0.05666 -0.41 -0.17 s-0.17 -0.25 -0.17 -0.41 s0.05666 -0.29666 0.17 -0.41 s0.25 -0.17 0.41 -0.17 l8.5 0 c0.16 0 0.29666 0.05666 0.41 0.17 s0.17 0.25 0.17 0.41 c0 0.13334 -0.02666 0.23334 -0.08 0.3 l-7.96 13.12 l7.46 0 c0.16 0 0.29666 0.06 0.41 0.18 s0.17 0.26 0.17 0.42 z"></path></g><g id="SvgjsG2956" featureKey="iMTlXc-0" transform="matrix(0.28211530951012403,0,0,0.28211530951012403,19.559900133306975,149.45401361394914)" fill="#4ecca3"><path d="M3.48 5.84 l0 8.74 c0 1.16 0.32334 2.1134 0.97 2.86 s1.51 1.12 2.59 1.12 s1.9433 -0.37334 2.59 -1.12 s0.97 -1.7 0.97 -2.86 l0 -8.74 l1.92 0 l0 9.06 c0 0.97334 -0.23 1.8833 -0.69 2.73 s-1.1133 1.5133 -1.96 2 s-1.79 0.73 -2.83 0.73 c-1.6 0 -2.9134 -0.52334 -3.94 -1.57 s-1.54 -2.3434 -1.54 -3.89 l0 -9.06 l1.92 0 z M32.05200000000001 5.84 l7.8 11.64 l0.04 0 l0 -11.64 l1.92 0 l0 14.16 l-2.44 0 l-7.88 -11.64 l-0.04 0 l0 11.64 l-1.92 0 l0 -14.16 l2.52 0 z M61.004000000000005 5.84 l0 12.36 l6.5 0 l0 1.8 l-8.42 0 l0 -14.16 l1.92 0 z M92.23600000000002 5.84 l0 1.8 l-7.22 0 l0 4.22 l6.72 0 l0 1.8 l-6.72 0 l0 4.54 l7.58 0 l0 1.8 l-9.5 0 l0 -14.16 l9.14 0 z M115.12800000000001 5.84 l6.06 14.16 l-2.24 0 l-1.42 -3.5 l-6.74 0 l-1.4 3.5 l-2.24 0 l6.24 -14.16 l1.74 0 z M111.46800000000002 14.82 l5.36 0 l-2.64 -6.5 l-0.04 0 z M140.72000000000003 5.48 c1.84 0 3.2 0.54006 4.08 1.6201 l-1.56 1.42 c-0.24 -0.37334 -0.58 -0.67334 -1.02 -0.9 s-0.94666 -0.34 -1.52 -0.34 c-0.82666 0 -1.49 0.20334 -1.99 0.61 s-0.75 0.93 -0.75 1.57 c0 1.0667 0.70666 1.8133 2.12 2.24 l1.78 0.58 c1 0.32 1.7633 0.76666 2.29 1.34 s0.79 1.36 0.79 2.36 c0 1.3067 -0.46334 2.3634 -1.39 3.17 s-2.1034 1.21 -3.53 1.21 c-2.04 0 -3.5466 -0.65334 -4.52 -1.96 l1.58 -1.36 c0.30666 0.48 0.72666 0.85334 1.26 1.12 s1.1133 0.4 1.74 0.4 c0.78666 0 1.4533 -0.22666 2 -0.68 s0.82 -1.0133 0.82 -1.68 c0 -0.49334 -0.16666 -0.90668 -0.5 -1.24 s-0.93334 -0.63334 -1.8 -0.9 l-1.26 -0.42 c-1.2667 -0.42666 -2.1534 -0.97 -2.66 -1.63 s-0.76 -1.51 -0.76 -2.55 c0 -1.1067 0.44666 -2.0466 1.34 -2.82 s2.0466 -1.16 3.46 -1.16 z M163.33200000000005 5.84 l0 5.88 l7.34 0 l0 -5.88 l1.92 0 l0 14.16 l-1.92 0 l0 -6.48 l-7.34 0 l0 6.48 l-1.92 0 l0 -14.16 l1.92 0 z M209.49600000000004 5.84 l3.86 6.22 l3.98 -6.22 l2.34 0 l-5.36 8.12 l0 6.04 l-1.92 0 l0 -6.04 l-5.36 -8.12 l2.46 0 z M241.42800000000005 5.48 c2.1066 0 3.8634 0.69998 5.27 2.1 s2.11 3.18 2.11 5.34 c0 1.3733 -0.31334 2.63 -0.94 3.77 s-1.51 2.0366 -2.65 2.69 s-2.4034 0.98 -3.79 0.98 c-1.3733 0 -2.6266 -0.32334 -3.76 -0.97 s-2.02 -1.54 -2.66 -2.68 s-0.96 -2.4034 -0.96 -3.79 c0 -2.1066 0.69 -3.8734 2.07 -5.3 s3.15 -2.14 5.31 -2.14 z M236.08800000000005 12.92 c0 1.6 0.49998 2.94 1.5 4.02 s2.28 1.62 3.84 1.62 c1.5333 0 2.8066 -0.53334 3.82 -1.6 s1.52 -2.4134 1.52 -4.04 c0 -1.6133 -0.5 -2.9566 -1.5 -4.03 s-2.2866 -1.61 -3.86 -1.61 c-1.52 0 -2.7866 0.53334 -3.8 1.6 s-1.52 2.4134 -1.52 4.04 z M266.86000000000007 5.84 l0 8.74 c0 1.16 0.32334 2.1134 0.97 2.86 s1.51 1.12 2.59 1.12 s1.9433 -0.37334 2.59 -1.12 s0.97 -1.7 0.97 -2.86 l0 -8.74 l1.92 0 l0 9.06 c0 0.97334 -0.23 1.8833 -0.69 2.73 s-1.1133 1.5133 -1.96 2 s-1.79 0.73 -2.83 0.73 c-1.6 0 -2.9134 -0.52334 -3.94 -1.57 s-1.54 -2.3434 -1.54 -3.89 l0 -9.06 l1.92 0 z M297.992 5.84 c1.3867 0 2.4734 0.34666 3.26 1.04 s1.18 1.6667 1.18 2.92 c0 0.94666 -0.32334 1.7733 -0.97 2.48 s-1.4767 1.1267 -2.49 1.26 l-0.02 0 l4.02 6.46 l-2.4 0 l-3.6 -6.24 l-2.14 0 l0 6.24 l-1.92 0 l0 -14.16 l5.08 0 z M297.432 12.08 c1 0 1.7433 -0.18336 2.23 -0.55002 s0.73 -0.94332 0.73 -1.73 c0 -1.52 -0.98666 -2.28 -2.96 -2.28 l-2.6 0 l0 4.56 l2.6 0 z M344.4560000000001 5.48 c1 0 1.9367 0.18664 2.81 0.55998 s1.59 0.92 2.15 1.64 l-1.6 1.22 c-0.86666 -1.08 -2.0066 -1.62 -3.42 -1.62 c-1.5333 0 -2.7966 0.54666 -3.79 1.64 s-1.49 2.4666 -1.49 4.12 c0 1.6 0.49 2.92 1.47 3.96 s2.25 1.56 3.81 1.56 s2.7934 -0.63334 3.7 -1.9 l1.62 1.22 c-0.56 0.74666 -1.3067 1.3467 -2.24 1.8 s-1.9733 0.68 -3.12 0.68 c-1.36 0 -2.5934 -0.33 -3.7 -0.99 s-1.98 -1.5667 -2.62 -2.72 s-0.96 -2.3634 -0.96 -3.63 c0 -2.1866 0.68666 -3.99 2.06 -5.41 s3.1466 -2.13 5.32 -2.13 z M370.74800000000005 5.84 c1.3867 0 2.4734 0.34666 3.26 1.04 s1.18 1.6667 1.18 2.92 c0 0.94666 -0.32334 1.7733 -0.97 2.48 s-1.4767 1.1267 -2.49 1.26 l-0.02 0 l4.02 6.46 l-2.4 0 l-3.6 -6.24 l-2.14 0 l0 6.24 l-1.92 0 l0 -14.16 l5.08 0 z M370.18800000000005 12.08 c1 0 1.7433 -0.18336 2.23 -0.55002 s0.73 -0.94332 0.73 -1.73 c0 -1.52 -0.98666 -2.28 -2.96 -2.28 l-2.6 0 l0 4.56 l2.6 0 z M400.66 5.84 l0 1.8 l-7.22 0 l0 4.22 l6.72 0 l0 1.8 l-6.72 0 l0 4.54 l7.58 0 l0 1.8 l-9.5 0 l0 -14.16 l9.14 0 z M423.552 5.84 l6.06 14.16 l-2.24 0 l-1.42 -3.5 l-6.74 0 l-1.4 3.5 l-2.24 0 l6.24 -14.16 l1.74 0 z M419.892 14.82 l5.36 0 l-2.64 -6.5 l-0.04 0 z M452.684 5.84 l0 1.8 l-4.56 0 l0 12.36 l-1.92 0 l0 -12.36 l-4.56 0 l0 -1.8 l11.04 0 z M470.27600000000007 5.84 l0 14.16 l-1.92 0 l0 -14.16 l1.92 0 z M487.8280000000001 5.84 l4.16 11.52 l0.04 0 l4.32 -11.52 l2.1 0 l-5.58 14.16 l-1.8 0 l-5.46 -14.16 l2.22 0 z M515.7 5.84 l0 14.16 l-1.92 0 l0 -14.16 l1.92 0 z M542.412 5.84 l0 1.8 l-4.56 0 l0 12.36 l-1.92 0 l0 -12.36 l-4.56 0 l0 -1.8 l11.04 0 z M558.524 5.84 l3.86 6.22 l3.98 -6.22 l2.34 0 l-5.36 8.12 l0 6.04 l-1.92 0 l0 -6.04 l-5.36 -8.12 l2.46 0 z"></path></g>
			</g>
		</svg>
	